#!OML:ASF F:\VICON\USERDATA\INSTALL\rory3\rory3.ASF
:FULLY-SPECIFIED
:DEGREES
2449
root -8.57971 17.6463 -0.0335167 189.898 63.0363 169.854
lowerback 10.8172 -1.06169 -2.8208
upperback 6.01969 -1.1678 5.07973
thorax 0.4163 -0.558038 7.05028
lowerneck -10.5481 -8.58667 -9.59209
upperneck 34.2223 -11.3144 8.70247
head 14.7076 -4.49594 3.56998
rclavicle 2.38542e-015 6.04305e-014
rhumerus -2.05893 -40.2049 -68.5481
rradius 33.3916
rwrist -6.84645
rhand -35.3186 -23.7148
rfingers 7.12502
rthumb -8.45221 -53.5256
lclavicle 2.38542e-015 6.04305e-014
lhumerus -2.87262 -71.962 96.6149
lradius 72.0483
lwrist 71.0284
lhand -9.15496 48.4885
lfingers 7.12502
lthumb 16.7973 -1002.22
rfemur -40.9006 -13.6793 19.7777
rtibia 43.1514
rfoot -20.7347 -6.62927
rtoes 8.68091
lfemur -27.8436 -3.82583 -22.278
ltibia 29.2721
lfoot -15.8732 -1.75421
ltoes -16.058
2450
root -8.57601 17.6548 -0.00503033 190.09 63.2451 169.892
lowerback 10.7849 -1.15555 -2.70888
upperback 6.07276 -1.28324 5.00673
thorax 0.500081 -0.615067 6.91694
lowerneck -10.7414 -8.36506 -9.76674
upperneck 34.1443 -11.0041 8.85248
head 14.6993 -4.37088 3.7082
rclavicle 9.54166e-015 2.70347e-014
rhumerus -1.82747 -40.7154 -68.4592
rradius 33.162
rwrist -6.21441
rhand -35.3039 -23.7304
rfingers 7.12502
rthumb -8.43804 -53.5419
lclavicle 9.54166e-015 2.70347e-014
lhumerus -2.99206 -71.5301 96.76
lradius 72.3286
lwrist 70.7219
lhand -9.01705 48.979
lfingers 7.12502
lthumb 16.93 -1001.74
rfemur -40.8877 -13.4749 20.0404
rtibia 42.5583
rfoot -20.7357 -6.99947
rtoes 8.49524
lfemur -28.0228 -4.1444 -21.9924
ltibia 29.2107
lfoot -15.722 -1.52563
ltoes -16.6068
2451
root -8.57293 17.6754 0.0229047 190.371 63.4021 170.13
lowerback 10.9531 -1.17779 -2.44837
upperback 6.07094 -1.28881 4.92691
thorax 0.395822 -0.606668 6.68527
lowerneck -10.871 -8.23787 -9.62784
upperneck 34.1337 -10.8367 8.80463
head 14.686 -4.2871 3.68902
rclavicle 3.26007e-014 -5.40694e-014
rhumerus -1.81631 -41.1691 -68.2713
rradius 32.9861
rwrist -5.97902
rhand -35.6104 -23.5608
rfingers 7.12502
rthumb -8.73383 -53.3601
lclavicle 3.26007e-014 -5.40694e-014
lhumerus -3.5779 -71.3328 97.3428
lradius 72.5961
lwrist 70.5869
lhand -9.02203 49.5961
lfingers 7.12502
lthumb 16.9252 -1001.12
rfemur -40.6878 -12.659 20.0447
rtibia 42.0737
rfoot -20.9537 -7.59811
rtoes 8.95268
lfemur -28.1413 -4.48884 -21.5875
ltibia 29.1855
lfoot -15.5048 -1.31962
ltoes -17.2224
2452
root -8.56941 17.6967 0.0468742 190.524 63.5911 170.274
lowerback 11.1063 -1.1994 -2.19516
upperback 6.09726 -1.29313 4.83025
thorax 0.32907 -0.598804 6.43953
lowerneck -11.0676 -8.1286 -9.3911
upperneck 34.2227 -10.6587 8.58506
head 14.7132 -4.20276 3.58431
rclavicle -2.38542e-015 -5.88403e-014
rhumerus -1.81591 -41.3688 -68.1416
rradius 32.9052
rwrist -5.89809
rhand -35.8454 -23.3763
rfingers 7.12502
rthumb -8.96059 -53.1661
lclavicle -2.38542e-015 -5.88403e-014
lhumerus -4.04611 -71.1535 97.5888
lradius 72.9477
lwrist 70.5674
lhand -9.02989 49.6658
lfingers 7.12502
lthumb 16.9177 -1001.05
rfemur -40.5458 -12.2599 20.0812
rtibia 41.7205
rfoot -20.6981 -7.81
rtoes 8.82636
lfemur -28.2002 -4.80475 -21.2412
ltibia 29.1857
lfoot -15.2653 -1.2285
ltoes -16.9572
2453
root -8.56396 17.7145 0.0691629 190.581 63.7327 170.256
lowerback 11.1202 -1.22521 -1.9859
upperback 6.14381 -1.30965 4.7149
thorax 0.361644 -0.601171 6.197
lowerneck -11.1655 -8.04276 -9.24542
upperneck 34.2223 -10.5662 8.57584
head 14.7109 -4.14508 3.56858
rclavicle 0 2.8625e-014
rhumerus -1.86659 -41.4124 -68.0574
rradius 32.9507
rwrist -5.98939
rhand -35.7804 -23.2215
rfingers 7.12502
rthumb -8.89791 -53.0138
lclavicle 0 2.8625e-014
lhumerus -4.31289 -70.9489 97.6496
lradius 73.1788
lwrist 70.5318
lhand -8.83648 49.5682
lfingers 7.12502
lthumb 17.1038 -1001.16
rfemur -40.5507 -12.2882 20.1553
rtibia 41.4789
rfoot -20.3083 -7.5932
rtoes 8.71721
lfemur -28.31 -5.16799 -20.9568
ltibia 29.1865
lfoot -14.997 -1.28955
ltoes -16.5095
2454
root -8.55858 17.7297 0.0954839 190.828 63.7489 170.482
lowerback 11.1645 -1.28369 -1.69686
upperback 6.20722 -1.35472 4.67958
thorax 0.398954 -0.614894 5.99822
lowerneck -11.1473 -7.96256 -9.19223
upperneck 34.1091 -10.4735 8.59478
head 14.6384 -4.10228 3.57921
rclavicle -5.80451e-014 -6.52014e-014
rhumerus -1.79688 -41.1058 -68.0203
rradius 32.9643
rwrist -6.35475
rhand -35.9652 -23.0115
rfingers 7.12502
rthumb -9.07621 -52.7962
lclavicle -5.80451e-014 -6.52014e-014
lhumerus -4.35562 -70.7483 97.5003
lradius 73.3533
lwrist 70.6255
lhand -8.74667 49.5042
lfingers 7.12502
lthumb 17.1903 -1001.24
rfemur -40.5615 -12.3818 20.3781
rtibia 41.3276
rfoot -20.058 -7.40216
rtoes 8.55277
lfemur -28.4053 -5.50563 -20.5487
ltibia 29.1686
lfoot -14.7236 -1.38708
ltoes -17.3027
2455
root -8.5541 17.7413 0.126629 190.775 63.7368 170.285
lowerback 11.1936 -1.29739 -1.61927
upperback 6.19931 -1.36783 4.61154
thorax 0.371406 -0.618352 5.8832
lowerneck -10.9837 -7.92021 -9.154
upperneck 33.9595 -10.4601 8.69792
head 14.5338 -4.08716 3.61699
rclavicle 5.56597e-015 -3.49861e-014
rhumerus -1.84292 -40.7601 -67.9649
rradius 33.0842
rwrist -6.64814
rhand -36.1665 -22.9337
rfingers 7.12502
rthumb -9.27046 -52.7099
lclavicle 5.56597e-015 -3.49861e-014
lhumerus -4.53374 -70.668 97.3388
lradius 73.6664
lwrist 70.7959
lhand -8.91664 49.9421
lfingers 7.12502
lthumb 17.0267 -1000.78
rfemur -40.7149 -12.4845 20.4443
rtibia 41.2568
rfoot -19.7877 -7.25583
rtoes 8.82743
lfemur -28.5989 -5.77432 -20.3389
ltibia 29.0922
lfoot -14.3318 -1.63605
ltoes -16.6413
2456
root -8.54972 17.751 0.155538 190.381 63.7275 169.738
lowerback 11.2438 -1.32242 -1.77757
upperback 6.1895 -1.41613 4.60706
thorax 0.344783 -0.646275 5.97596
lowerneck -10.9486 -7.87642 -9.08068
upperneck 33.9527 -10.388 8.62034
head 14.5018 -4.05751 3.58497
rclavicle 3.18055e-014 5.40694e-014
rhumerus -1.78068 -40.1711 -67.8812
rradius 33.2798
rwrist -7.05963
rhand -36.1703 -22.8315
rfingers 7.12502
rthumb -9.27417 -52.6075
lclavicle 3.18055e-014 5.40694e-014
lhumerus -4.6665 -70.3871 97.1496
lradius 73.9229
lwrist 70.8434
lhand -9.01698 50.2091
lfingers 7.12502
lthumb 16.9301 -1000.51
rfemur -40.8802 -12.679 20.35
rtibia 41.2345
rfoot -19.6204 -7.00836
rtoes 9.89785
lfemur -28.6998 -5.7931 -20.3912
ltibia 28.9099
lfoot -13.9167 -2.12612
ltoes -15.7836
2457
root -8.54205 17.7589 0.18118 189.777 63.7422 169.06
lowerback 11.4218 -1.34819 -2.09478
upperback 6.13498 -1.47776 4.67951
thorax 0.212462 -0.682905 6.24828
lowerneck -10.986 -7.85377 -9.21815
upperneck 34.1236 -10.2887 8.54524
head 14.5827 -4.03482 3.60055
rclavicle 8.74653e-015 -6.52014e-014
rhumerus -1.78958 -39.1567 -67.6755
rradius 33.4376
rwrist -7.52211
rhand -36.2497 -22.3074
rfingers 7.12502
rthumb -9.35077 -52.08
lclavicle 8.74653e-015 -6.52014e-014
lhumerus -5.19049 -69.8363 97.4939
lradius 74.0329
lwrist 70.9936
lhand -9.53645 50.6067
lfingers 7.12502
lthumb 16.43 -1000.07
rfemur -40.9348 -12.8419 20.1483
rtibia 41.2459
rfoot -19.5009 -6.77755
rtoes 10.8356
lfemur -28.5684 -5.93483 -20.4578
ltibia 28.6101
lfoot -13.7014 -2.5447
ltoes -16.1381
2458
root -8.53234 17.7695 0.209477 189.015 63.694 168.228
lowerback 11.7416 -1.35378 -2.60499
upperback 5.96731 -1.53438 4.82804
thorax -0.105146 -0.717155 6.72035
lowerneck -10.8631 -7.86652 -9.5187
upperneck 34.3141 -10.191 8.44224
head 14.6475 -4.03848 3.63789
rclavicle 5.48646e-014 0
rhumerus -2.04233 -37.7639 -67.2586
rradius 33.6467
rwrist -7.85977
rhand -35.8888 -21.7435
rfingers 7.12502
rthumb -9.00248 -51.5314
lclavicle 5.48646e-014 0
lhumerus -6.67407 -68.6776 99.2758
lradius 73.7192
lwrist 70.6542
lhand -10.158 51.1508
lfingers 7.12502
lthumb 15.8315 -999.476
rfemur -40.9754 -13.1372 19.9442
rtibia 41.2349
rfoot -19.2934 -6.77112
rtoes 10.2057
lfemur -28.3415 -6.18642 -20.5456
ltibia 28.2237
lfoot -13.5779 -3.01953
ltoes -16.0961
2459
root -8.52302 17.7837 0.23637 188.467 63.5756 167.667
lowerback 11.95 -1.36421 -2.82467
upperback 5.89979 -1.56743 4.90942
thorax -0.272712 -0.733746 6.94677
lowerneck -10.6538 -7.90208 -9.41653
upperneck 34.2881 -10.1889 8.19895
head 14.562 -4.05777 3.523
rclavicle -1.19271e-014 4.29375e-014
rhumerus -2.33419 -36.1014 -66.9745
rradius 34.0235
rwrist -8.83805
rhand -35.404 -20.9076
rfingers 7.12502
rthumb -8.53469 -50.7151
lclavicle -1.19271e-014 4.29375e-014
lhumerus -7.95801 -67.2765 100.963
lradius 73.1605
lwrist 69.8289
lhand -10.6106 51.7418
lfingers 7.12502
lthumb 15.3956 -998.852
rfemur -40.946 -13.4476 19.8902
rtibia 41.174
rfoot -19.116 -6.91518
rtoes 9.25145
lfemur -28.1368 -6.10622 -20.667
ltibia 27.7979
lfoot -13.2084 -3.59971
ltoes -16.2623
2460
root -8.51213 17.7976 0.262257 188.089 63.4849 167.299
lowerback 11.9231 -1.35338 -2.78267
upperback 5.99015 -1.54338 4.89907
thorax -0.168262 -0.7224 6.90645
lowerneck -10.618 -7.97067 -9.25618
upperneck 34.2758 -10.2928 8.1037
head 14.5421 -4.09304 3.43818
rclavicle -1.35174e-014 5.24792e-014
rhumerus -2.13959 -35.3343 -67.2793
rradius 34.2187
rwrist -9.38538
rhand -35.1049 -20.2526
rfingers 7.12502
rthumb -8.24597 -50.0717
lclavicle -1.35174e-014 5.24792e-014
lhumerus -8.27139 -66.4087 101.183
lradius 72.807
lwrist 69.2987
lhand -11.1466 52.3071
lfingers 7.12502
lthumb 14.8793 -998.247
rfemur -40.8469 -13.4442 19.8113
rtibia 41.067
rfoot -19.1667 -7.18094
rtoes 9.0006
lfemur -27.9617 -5.7533 -20.8442
ltibia 27.3669
lfoot -12.7387 -4.07247
ltoes -16.9095
2461
root -8.49851 17.8089 0.287958 188.016 63.3839 167.145
lowerback 11.6866 -1.38659 -2.65692
upperback 6.05731 -1.57095 4.93158
thorax 0.0307827 -0.738951 6.8631
lowerneck -10.5665 -8.00081 -9.35575
upperneck 34.3161 -10.3265 8.16324
head 14.5658 -4.11095 3.47794
rclavicle -1.11319e-014 -2.06736e-014
rhumerus -1.48173 -35.563 -68.1004
rradius 34.0781
rwrist -8.78233
rhand -34.2323 -19.3949
rfingers 7.12502
rthumb -7.40382 -49.2453
lclavicle -1.11319e-014 -2.06736e-014
lhumerus -8.29413 -65.7047 100.805
lradius 72.5351
lwrist 69.0331
lhand -11.2783 52.5157
lfingers 7.12502
lthumb 14.7524 -998.029
rfemur -40.8483 -13.4368 19.8544
rtibia 40.9311
rfoot -19.2683 -7.3668
rtoes 9.39195
lfemur -27.863 -5.59883 -20.8544
ltibia 26.9306
lfoot -12.3842 -4.32558
ltoes -17.1472
2462
root -8.48436 17.8181 0.312 188.176 63.2274 167.186
lowerback 11.3295 -1.41836 -2.50082
upperback 6.12761 -1.59023 5.07679
thorax 0.300746 -0.752955 6.91877
lowerneck -10.4872 -8.0097 -9.64838
upperneck 34.2787 -10.2938 8.25031
head 14.5554 -4.12511 3.57167
rclavicle 5.1684e-014 5.725e-014
rhumerus -0.913454 -35.4403 -68.7775
rradius 34.1373
rwrist -8.63081
rhand -33.5185 -18.4243
rfingers 7.12502
rthumb -6.71478 -48.2978
lclavicle 5.1684e-014 5.725e-014
lhumerus -8.37268 -64.8761 100.595
lradius 72.2089
lwrist 68.7606
lhand -11.1187 52.6728
lfingers 7.12502
lthumb 14.9061 -997.883
rfemur -40.9016 -13.5633 20.0479
rtibia 40.771
rfoot -19.309 -7.40508
rtoes 9.90163
lfemur -27.8164 -5.54161 -20.695
ltibia 26.5079
lfoot -12.1049 -4.75399
ltoes -16.6305
2463
root -8.47184 17.826 0.336359 187.909 63.0787 166.851
lowerback 11.143 -1.41904 -2.49981
upperback 6.14632 -1.58752 5.1747
thorax 0.425224 -0.755647 7.01729
lowerneck -10.4262 -8.04729 -9.84476
upperneck 34.3474 -10.2715 8.18991
head 14.5824 -4.14448 3.58893
rclavicle 3.73715e-014 -2.54444e-014
rhumerus -0.77731 -34.5936 -69.2119
rradius 34.4917
rwrist -9.13954
rhand -34.3749 -18.123
rfingers 7.12502
rthumb -7.54142 -47.9686
lclavicle 3.73715e-014 -2.54444e-014
lhumerus -8.76815 -64.0503 100.56
lradius 72.0311
lwrist 68.7151
lhand -10.9794 52.9188
lfingers 7.12502
lthumb 15.0403 -997.647
rfemur -40.7524 -13.0083 19.7387
rtibia 40.6228
rfoot -19.6718 -7.98987
rtoes 10.2167
lfemur -27.6585 -5.39098 -20.783
ltibia 26.0874
lfoot -11.9288 -5.21001
ltoes -16.726
